<svg id="Layer_1" data-name="Layer 1" xmlns="http://www.w3.org/2000/svg" viewBox="0 0 50 50">
  <title>type-craft-icons</title>
  <circle cx="25" cy="25" r="25" fill="none"/>
  <g>
    <path d="M34.7,16.989v9.8H15.218v-9.8H34.7m1.276-2.762H13.942a1.486,1.486,0,0,0-1.486,1.486V28.725h25V15.713a1.486,1.486,0,0,0-1.486-1.486Z" fill="#222"/>
    <path d="M35.21,29.4,36.731,33h-23.7l1.537-3.547ZM37.194,27.4l-24.635.067-3.01,6.609a1.2,1.2,0,0,0,1.092,1.675l28.533.02h.005a1.2,1.2,0,0,0,1.087-1.7L37.194,27.4Z" fill="#222"/>
  </g>
</svg>
