<svg id="Layer_1" data-name="Layer 1" xmlns="http://www.w3.org/2000/svg" viewBox="0 0 105.996 23.982">
  <title>logo</title>
  <g>
    <path d="M19.52,18.509,15.008,9.245a5.3,5.3,0,0,0-1.8-2.545V6.652h5.017V6.7a1.045,1.045,0,0,0-.72,1.08,3.892,3.892,0,0,0,.408,1.44l2.9,6.145L23.36,9.388a3.293,3.293,0,0,0,.264-1.2A1.509,1.509,0,0,0,22.592,6.7V6.652h3.36V6.7a5.308,5.308,0,0,0-1.9,2.76L19.184,20.789c-.936,2.136-1.92,3.193-3.5,3.193a2.036,2.036,0,0,1-2.3-1.992,1.714,1.714,0,0,1,1.777-1.777,1.845,1.845,0,0,1,.816.168,1.082,1.082,0,0,0-.721,1.128,1.16,1.16,0,0,0,1.225,1.225c.936,0,1.488-.721,2.184-2.28Z"/>
    <path d="M30.008,21.125c0,1.584.168,2.04,1.3,2.569v.048H25.928v-.048c1.128-.529,1.295-.985,1.295-2.569V9.292c0-1.44-.288-2.064-1.416-2.592V6.652h4.2V9.821a4.368,4.368,0,0,1,4.248-3.408c2.9,0,5.257,2.255,5.257,6,0,3.768-2.4,6.216-5.353,6.216a4.231,4.231,0,0,1-4.152-3.24Zm0-9.6v2.04c0,2.472,1.656,3.984,3.24,3.984,2.04,0,3.265-1.944,3.265-5.136,0-2.977-1.249-4.752-3.289-4.752C31.64,7.661,30.008,9.124,30.008,11.525Z"/>
    <path d="M51.752,12.029h-8.16c0,3.12,1.584,5.232,4.176,5.232a3.931,3.931,0,0,0,3.84-2.712l.168.072a4.888,4.888,0,0,1-5.16,4.008,5.71,5.71,0,0,1-5.857-6.1,5.844,5.844,0,0,1,5.809-6.12C50.144,6.413,51.752,8.764,51.752,12.029Zm-2.832-.5c0-2.521-.384-4.657-2.376-4.657-1.56,0-2.808,1.824-2.9,4.657Z"/>
    <path d="M56.047,12.172c0,3.241,1.68,5.113,3.912,5.113a3.943,3.943,0,0,0,3.865-2.736l.144.072a4.871,4.871,0,0,1-5.113,4.008,5.657,5.657,0,0,1-5.784-5.881,6.084,6.084,0,0,1,6.337-6.335c2.567,0,4.3,1.319,4.3,3a1.838,1.838,0,0,1-1.92,1.919,1.5,1.5,0,0,1-1.657-1.2,1.481,1.481,0,0,0,.432.073c.745,0,1.153-.552,1.153-1.393,0-1.1-.7-1.944-2.3-1.944C57.319,6.868,56.047,9.124,56.047,12.172Z"/>
    <path d="M73.111,9.268c0-.72-.5-1.176-1.344-1.176-1.512,0-2.832,2.017-2.832,4.609v3.072c0,1.584.672,2.112,2.016,2.568v.048h-6.1v-.048c1.128-.528,1.3-.984,1.3-2.568V9.292c0-1.44-.264-2.064-1.416-2.592V6.652h4.2v3.984c.552-2.231,1.752-4.223,3.888-4.223a2.143,2.143,0,0,1,2.329,2.111,1.989,1.989,0,0,1-1.969,2.137,1.105,1.105,0,0,1-.792-.289A1.139,1.139,0,0,0,73.111,9.268Z"/>
    <path d="M87.968,17.549a3.086,3.086,0,0,1-2.4,1.032,2.236,2.236,0,0,1-2.449-2.112c0-.1-.047-.768-.047-.984a3.974,3.974,0,0,1-3.961,3.072c-1.9,0-3.456-.96-3.456-2.976,0-2.617,2.688-3.193,5.568-3.72l1.824-.336V9.844c0-1.584-.72-2.976-2.5-2.976-1.584,0-2.208.864-2.208,1.921,0,.815.408,1.343,1.1,1.343a.944.944,0,0,0,.36-.072,1.661,1.661,0,0,1-1.728,1.177,1.8,1.8,0,0,1-1.92-1.849c0-1.632,1.8-2.975,4.44-2.975,3.36,0,5.28,1.2,5.28,4.1,0,1.921-.048,3.481-.048,5.017,0,1.392.409,2.136,1.464,2.136a1.55,1.55,0,0,0,.673-.168Zm-6.337-5.3c-2.136.431-3.12,1.3-3.12,2.976,0,1.464.768,2.088,1.824,2.088,1.392,0,2.64-1.2,2.664-3.192l.048-2.136Z"/>
    <path d="M89.622,7.276H88.038V7.084l1.584-.528V5.38c0-3.552,2.017-5.064,4.777-5.064,1.968,0,3.48.72,3.48,2.16A1.591,1.591,0,0,1,96.151,4.06a1.561,1.561,0,0,1-1.272-.5,1.263,1.263,0,0,0,.96-1.368A1.35,1.35,0,0,0,94.4.7c-1.584,0-1.992,1.488-1.992,3.336V6.652h3.144l-.12.624H92.407v8.5c0,1.584.671,2.112,2.016,2.568v.048h-6.1v-.048c1.127-.528,1.3-.984,1.3-2.568Z"/>
    <path d="M104.479,14.453c-.216,2.3-1.176,4.176-3.552,4.176-1.992,0-3.288-1.2-3.288-3.673V7.276H96.078V7.084a5.447,5.447,0,0,0,4.128-4.56h.217V6.652h3.7l-.12.624h-3.576v7.657c0,1.464.552,2.232,1.584,2.232,1.153,0,1.945-.984,2.256-2.736Z"/>
  </g>
  <path d="M16.971,5.661,16.293,1.4a2.84,2.84,0,0,1-1.3.191H2.444A2.894,2.894,0,0,1,1.124,1.4L.308,6.532H.356c1.7-2.856,2.568-4.344,5.232-4.344h1.68V15.509c0,1.584-.312,2.28-1.44,2.832v.048h5.785v-.048c-1.128-.552-1.44-1.248-1.44-2.832V2.188h1.679c2.3,0,3.258,1.107,4.556,3.245.062.1.076.124.075.121l.062.107Z"/>
</svg>
