<svg xmlns="http://www.w3.org/2000/svg" viewBox="0 0 109.271 23.666">
  <title>Asset 8</title>
  <g id="Layer_2" data-name="Layer 2">
    <g id="Layer_1-2" data-name="Layer 1">
      <g>
        <path d="M14.689,1.271a2.837,2.837,0,0,0,1.3-.191L16.8,6.216h-.049c-1.68-2.856-2.544-4.344-5.208-4.344H9.865V15.193c0,1.584.312,2.281,1.44,2.832v.048H5.521v-.048c1.128-.551,1.44-1.248,1.44-2.832V1.872H5.281C2.616,1.872,1.752,3.36.048,6.216H0L.816,1.08a2.894,2.894,0,0,0,1.32.191Z"/>
        <path d="M23.352,18.193,18.84,8.929a5.3,5.3,0,0,0-1.8-2.545V6.336h5.016v.048a1.045,1.045,0,0,0-.72,1.08,3.892,3.892,0,0,0,.408,1.44l2.9,6.145,2.544-5.977a3.3,3.3,0,0,0,.265-1.2,1.509,1.509,0,0,0-1.033-1.488V6.336h3.361v.048a5.3,5.3,0,0,0-1.9,2.761L23.016,20.474c-.936,2.135-1.92,3.192-3.5,3.192a2.035,2.035,0,0,1-2.3-1.992A1.714,1.714,0,0,1,18.984,19.9a1.842,1.842,0,0,1,.816.168,1.082,1.082,0,0,0-.72,1.128A1.16,1.16,0,0,0,20.3,22.418c.936,0,1.488-.721,2.184-2.28Z"/>
        <path d="M34.32,20.81c0,1.584.168,2.04,1.3,2.568v.048H30.24v-.048c1.128-.528,1.3-.984,1.3-2.568V8.977c0-1.441-.288-2.065-1.416-2.593V6.336h4.2V9.505A4.368,4.368,0,0,1,38.568,6.1c2.905,0,5.257,2.256,5.257,6,0,3.768-2.4,6.216-5.352,6.216a4.231,4.231,0,0,1-4.153-3.24Zm0-9.6v2.04c0,2.472,1.656,3.984,3.241,3.984,2.04,0,3.264-1.944,3.264-5.136,0-2.977-1.248-4.752-3.289-4.752C35.952,7.345,34.32,8.809,34.32,11.209Z"/>
        <path d="M56.305,11.713H48.144c0,3.12,1.584,5.232,4.176,5.232a3.933,3.933,0,0,0,3.841-2.712l.168.072a4.888,4.888,0,0,1-5.161,4.008,5.709,5.709,0,0,1-5.856-6.1A5.844,5.844,0,0,1,51.12,6.1C54.7,6.1,56.305,8.448,56.305,11.713Zm-2.832-.5c0-2.521-.385-4.657-2.377-4.657-1.56,0-2.808,1.824-2.9,4.657Z"/>
        <path d="M60.839,11.856c0,3.241,1.681,5.113,3.912,5.113a3.943,3.943,0,0,0,3.865-2.736l.144.072a4.871,4.871,0,0,1-5.113,4.008,5.657,5.657,0,0,1-5.784-5.88A6.084,6.084,0,0,1,64.2,6.1c2.568,0,4.3,1.319,4.3,3a1.839,1.839,0,0,1-1.92,1.92,1.5,1.5,0,0,1-1.657-1.2,1.481,1.481,0,0,0,.433.073c.744,0,1.152-.552,1.152-1.393,0-1.1-.7-1.944-2.3-1.944C62.111,6.552,60.839,8.809,60.839,11.856Z"/>
        <path d="M78.023,8.952c0-.72-.5-1.176-1.343-1.176-1.513,0-2.833,2.017-2.833,4.609v3.072c0,1.584.672,2.112,2.016,2.568v.048h-6.1v-.048c1.128-.528,1.3-.984,1.3-2.568V8.977c0-1.441-.264-2.065-1.416-2.593V6.336h4.2V10.32C74.4,8.089,75.6,6.1,77.735,6.1a2.143,2.143,0,0,1,2.329,2.111A1.989,1.989,0,0,1,78.1,10.345a1.106,1.106,0,0,1-.792-.288A1.142,1.142,0,0,0,78.023,8.952Z"/>
        <path d="M93.36,17.233a3.086,3.086,0,0,1-2.4,1.033,2.236,2.236,0,0,1-2.448-2.113c0-.1-.048-.768-.048-.984A3.973,3.973,0,0,1,84.5,18.241c-1.9,0-3.456-.96-3.456-2.976,0-2.617,2.688-3.193,5.568-3.72l1.824-.336V9.528c0-1.584-.719-2.976-2.5-2.976-1.584,0-2.208.864-2.208,1.921,0,.815.409,1.343,1.1,1.343a.944.944,0,0,0,.36-.072,1.66,1.66,0,0,1-1.728,1.177,1.8,1.8,0,0,1-1.92-1.849c0-1.632,1.8-2.975,4.44-2.975,3.361,0,5.28,1.2,5.28,4.1,0,1.921-.047,3.481-.047,5.017,0,1.392.408,2.137,1.464,2.137a1.559,1.559,0,0,0,.672-.168Zm-6.337-5.3c-2.135.431-3.12,1.3-3.12,2.976,0,1.464.768,2.088,1.825,2.088,1.391,0,2.639-1.2,2.664-3.192l.047-2.136Z"/>
        <path d="M95.015,6.96H93.431V6.769l1.584-.529V5.064C95.015,1.512,97.031,0,99.791,0c1.968,0,3.48.72,3.48,2.16a1.591,1.591,0,0,1-1.728,1.584,1.561,1.561,0,0,1-1.272-.5,1.263,1.263,0,0,0,.96-1.368A1.35,1.35,0,0,0,99.791.384C98.207.384,97.8,1.872,97.8,3.72V6.336h3.144l-.12.624H97.8v8.5c0,1.584.672,2.112,2.016,2.568v.048h-6.1v-.048c1.128-.528,1.3-.984,1.3-2.568Z"/>
        <path d="M109.271,14.137c-.216,2.3-1.176,4.176-3.552,4.176-1.992,0-3.288-1.2-3.288-3.672V6.96H100.87V6.769A5.451,5.451,0,0,0,105,2.208h.217V6.336h3.7l-.12.624h-3.576v7.657c0,1.464.552,2.233,1.584,2.233,1.152,0,1.944-.985,2.256-2.737Z"/>
      </g>
    </g>
  </g>
</svg>
