<svg id="Layer_1" data-name="Layer 1" xmlns="http://www.w3.org/2000/svg" viewBox="0 0 16 16">
  <title>favicon</title>
  <path d="M7.2,4.17a1.353,1.353,0,0,0,.621-.092l.392,2.464H8.194c-.806-1.37-1.221-2.084-2.5-2.084H4.889v6.39c0,.761.15,1.094.691,1.359v.023H2.805v-.023c.541-.265.691-.6.691-1.359V4.458H2.69C1.412,4.458,1,5.172.18,6.542H.156L.548,4.078a1.382,1.382,0,0,0,.633.092Zm8.433,2.476h-.023A3.044,3.044,0,0,0,12.942,4.32c-1.727,0-2.706,1.623-2.706,3.753,0,2.258,1.313,3.57,2.867,3.57a2.65,2.65,0,0,0,2.683-1.761l.058.022a3.027,3.027,0,0,1-3.2,2.442A3.879,3.879,0,0,1,8.693,8.234a4.115,4.115,0,0,1,4.18-4.18,10.013,10.013,0,0,1,1.923.392,1.02,1.02,0,0,0,.76-.392Z" fill="#000222"/>
</svg>
