<svg id="Layer_1" data-name="Layer 1" xmlns="http://www.w3.org/2000/svg" viewBox="0 0 50 50">
  <title>type-craft-icons</title>
  <g>
    <path d="M19.166,7.329H30.834a2.755,2.755,0,0,1,2.755,2.755V39.709a2.754,2.754,0,0,1-2.754,2.754H19.166a2.755,2.755,0,0,1-2.755-2.755V10.083A2.755,2.755,0,0,1,19.166,7.329Z" fill="#1432ff"/>
    <path d="M30.835,9.329a.755.755,0,0,1,.754.754V39.708a.755.755,0,0,1-.754.755H19.165a.755.755,0,0,1-.754-.755V10.083a.755.755,0,0,1,.754-.754h11.67m0-4H19.165a4.753,4.753,0,0,0-4.754,4.754V39.708a4.754,4.754,0,0,0,4.754,4.755h11.67a4.754,4.754,0,0,0,4.754-4.755V10.083a4.753,4.753,0,0,0-4.754-4.754Z" fill="#1432ff"/>
  </g>
</svg>
