<svg id="Layer_1" data-name="Layer 1" xmlns="http://www.w3.org/2000/svg" viewBox="0 0 50 50">
  <title>type-craft-icons</title>
  <path fill="#222" d="M43.327,10.529H6.673a1.926,1.926,0,0,0-1.927,1.927V33.7a1.927,1.927,0,0,0,1.927,1.927h12c0,.04-.006.08,0,.121.087,1.057-.121,3.523-1.305,3.956a2.3,2.3,0,0,0,.791,4.467H31.847A2.3,2.3,0,0,0,33.04,39.9c-1.415-.857-1.706-3.4-1.7-4.27H43.327A1.927,1.927,0,0,0,45.254,33.7V12.456A1.926,1.926,0,0,0,43.327,10.529ZM27.383,39.562h-4.55a11.559,11.559,0,0,0,.443-3.937h3.457A12.473,12.473,0,0,0,27.383,39.562Zm12.751-9.057H9.866V15.649H40.134Z"/>
</svg>
