<?xml version="1.0" encoding="UTF-8"?>
<svg width="104px" height="19px" viewBox="0 0 104 19" version="1.1" xmlns="http://www.w3.org/2000/svg" xmlns:xlink="http://www.w3.org/1999/xlink">
    <!-- Generator: Sketch Beta 53 (71402) - https://sketchapp.com -->
    <title>Combined Shape</title>
    <desc>Created with Sketch Beta.</desc>
    <defs>
        <path d="M92.507405,7.72373155 L92.507405,6.14449659 C92.507405,5.98574483 92.5878716,5.90705917 92.7474175,5.90705917 L94.9380523,5.90705917 L94.9380523,2.44489022 C94.9380523,2.28889935 95.0171316,2.21021369 95.1752901,2.21021369 L96.7582631,2.21021369 C96.9164216,2.21021369 96.9955009,2.28889935 96.9955009,2.44489022 L96.9955009,5.90705917 L101.579324,5.90705917 C101.73887,5.90705917 101.81795,5.98574483 101.81795,6.14449659 L101.81795,7.72373155 C101.81795,7.88248332 101.737483,7.96116898 101.579324,7.96116898 L97.0024377,7.96116898 L97.0024377,13.3697726 C97.0024377,14.370599 97.1911181,15.0152692 97.5199214,15.4956658 C97.8764718,16.0160956 98.4050544,16.2562939 99.2388552,16.2562939 C100.004676,16.2562939 100.473602,16.143097 100.83154,15.7441469 C101.190865,15.3451968 101.373996,14.7267551 101.493308,13.8736369 C101.508569,13.732831 101.59736,13.6624281 101.756906,13.6624281 L103.330167,13.6624281 L103.425895,13.6624281 C103.441156,13.6624281 103.463354,13.6707108 103.491101,13.6858957 C103.518848,13.7010807 103.536883,13.7245483 103.545208,13.7549182 C103.553532,13.7852881 103.557694,13.8239407 103.557694,13.8694956 C103.557694,15.0663459 103.28161,16.0920203 102.429773,17.0500527 C101.686151,17.885225 100.616499,18.3090232 99.2471793,18.3090232 C97.84595,18.3090232 96.7790734,17.8769423 96.0465496,17.0528136 C95.3140257,16.2286849 94.9380523,15.0111278 94.9380523,13.401523 L94.9380523,7.96116898 L92.7474175,7.96116898 C92.5864842,7.96116898 92.507405,7.88110287 92.507405,7.72373155 Z M25.0208703,7.72373155 L25.0208703,6.14449659 C25.0208703,5.98574483 25.101337,5.90705917 25.2608829,5.90705917 L27.4515177,5.90705917 L27.4515177,2.44489022 C27.4515177,2.28889935 27.530597,2.21021369 27.6887555,2.21021369 L29.2717285,2.21021369 C29.429887,2.21021369 29.5089663,2.28889935 29.5089663,2.44489022 L29.5089663,5.90705917 L34.0927898,5.90705917 C34.2523357,5.90705917 34.331415,5.98574483 34.331415,6.14449659 L34.331415,7.72373155 C34.331415,7.88248332 34.2509484,7.96116898 34.0927898,7.96116898 L29.5159031,7.96116898 L29.5159031,13.3697726 C29.5159031,14.370599 29.7045835,15.0152692 30.0333868,15.4956658 C30.3899372,16.0160956 30.9185198,16.2562939 31.7523206,16.2562939 C32.518141,16.2562939 32.9870672,16.143097 33.345005,15.7441469 C33.7043302,15.3451968 33.8874611,14.7267551 34.0067737,13.8736369 C34.0220347,13.732831 34.1108254,13.6624281 34.2703713,13.6624281 L35.8436328,13.6624281 L35.9393603,13.6624281 C35.9546213,13.6624281 35.976819,13.6707108 36.0045661,13.6858957 C36.0323132,13.7010807 36.0503488,13.7245483 36.0586729,13.7549182 C36.0669971,13.7852881 36.0711591,13.8239407 36.0711591,13.8694956 C36.0711591,15.0663459 35.7950753,16.0920203 34.9432389,17.0500527 C34.1996162,17.885225 33.1299649,18.3090232 31.7606447,18.3090232 C30.3594154,18.3090232 29.2925388,17.8769423 28.5600149,17.0528136 C27.8274911,16.2286849 27.4515177,15.0111278 27.4515177,13.401523 L27.4515177,7.96116898 L25.2608829,7.96116898 C25.101337,7.96116898 25.0208703,7.88110287 25.0208703,7.72373155 Z M89.9713186,13.7590596 C90.1766472,13.7590596 90.2501771,13.8874414 90.2487897,14.008921 C90.2487897,14.1083135 90.2404656,14.1911405 90.22243,14.2629239 C89.8977887,15.532938 89.2845775,16.5351448 88.3980571,17.2419353 C87.5101494,17.9501062 86.3530947,18.3090232 84.9588022,18.3090232 C83.17605,18.3090232 81.7318126,17.7085274 80.6635487,16.5268621 C79.5994468,15.3479577 79.0597654,13.8294625 79.0597654,12.0127901 C79.0597654,10.1961178 79.5980594,8.67900305 80.6579992,7.50423998 C81.7221011,6.32533556 83.1691132,5.72760065 84.9588022,5.72760065 C86.3544821,5.72760065 87.5101494,6.08789814 88.3980571,6.79882996 C89.2831901,7.50700088 89.8395198,8.50506633 90.164161,9.76265641 C90.183584,9.83443982 90.1919082,9.92140818 90.1919082,10.0290833 C90.1919082,10.1892155 90.0850818,10.2886079 89.9130496,10.2886079 L88.5076582,10.2886079 C88.1719181,10.2886079 88.0803527,10.1022471 88.0553803,9.99181114 C87.8389528,9.30296652 87.4532678,8.74112331 86.9094244,8.32974917 C86.3669683,7.91975547 85.710749,7.76376461 84.9601895,7.76376461 C83.8697279,7.76376461 82.8361478,8.11577939 82.1563435,8.91229913 C81.4709897,9.71434066 81.1241508,10.7593414 81.1241508,12.0183119 C81.1241508,13.2772825 81.4696024,14.2712066 82.1507941,15.0732481 C82.8278237,15.8697678 83.8614037,16.2728593 84.9601895,16.2728593 C85.7121363,16.2728593 86.4113637,16.0657918 86.9538198,15.6571785 C87.4962759,15.2485653 87.8833481,14.7405596 88.101163,14.0461932 C88.1233607,13.9440399 88.2149262,13.7590596 88.5506663,13.7590596 L89.9713186,13.7590596 Z M0.771278655,17.8548551 L0.771278655,16.2894247 C0.771278655,16.1306729 0.854520002,16.0478459 1.0210027,16.0395632 L4.26464051,16.0395632 L4.26464051,7.95978853 L1.62866453,7.95978853 C1.46911861,7.95978853 1.38587727,7.88110287 1.37894049,7.7223511 L1.37894049,6.14311614 C1.37894049,5.98436438 1.46218183,5.90567872 1.62866453,5.90567872 L6.07513981,5.90567872 C6.23468572,5.90567872 6.31792707,5.98436438 6.32486385,6.14311614 L6.32486385,16.0395632 L9.95696128,16.0395632 C10.1165072,16.0395632 10.1997485,16.1223902 10.2066853,16.2894247 L10.2066853,17.8548551 C10.2066853,18.0136069 10.123444,18.0922926 9.95696128,18.0922926 L1.0210027,18.0922926 C0.854520002,18.0922926 0.771278655,18.0136069 0.771278655,17.8548551 Z M22.8066505,10.6268182 L22.8094252,10.6254378 L22.8094252,10.6723731 L22.8094252,11.809864 L22.8094252,17.8520942 C22.8094252,18.010846 22.7289586,18.0895317 22.5708,18.0895317 L20.9933765,18.0895317 C20.835218,18.0895317 20.7519766,18.0094656 20.7436525,17.8520942 L20.7436525,11.809864 L20.7436525,10.6999821 C20.7436525,9.87861422 20.3773906,9.08899674 19.8321597,8.53405579 C19.3507473,8.04399599 18.5211085,7.75824281 17.7594502,7.75824281 C16.8632184,7.75824281 16.0238681,8.01224563 15.3662615,8.79910221 C15.3190914,8.85432022 15.2774707,8.90953823 15.2372374,8.96337578 C15.2219765,8.98546298 15.2094903,9.00616974 15.1942294,9.02687649 C15.1706443,9.06000729 15.1470593,9.09313809 15.1262489,9.1262689 C15.110988,9.151117 15.0971144,9.1759651 15.0832409,9.20081321 C15.0665926,9.22980266 15.048557,9.25879211 15.0332961,9.28778156 C15.0194225,9.31401012 15.0069363,9.34161912 14.9944501,9.36784767 C14.9819639,9.39545668 14.9680904,9.42168523 14.9556042,9.44929423 C14.943118,9.47690323 14.9334065,9.50451224 14.9223076,9.53212124 C14.9112088,9.55834979 14.9001099,9.5859588 14.8903984,9.61218735 C14.8806869,9.63979635 14.8723628,9.66740535 14.8640387,9.69501436 C14.8557145,9.72262336 14.8460031,9.74885191 14.8390663,9.77646091 C14.8307421,9.80406992 14.8251927,9.83167892 14.8182559,9.85928792 C14.8113192,9.88689693 14.802995,9.91450593 14.7974456,9.94349538 C14.7918962,9.97110438 14.7877341,9.99733294 14.7821847,10.0249419 C14.7780226,10.0539314 14.7710858,10.0829208 14.7669238,10.1132907 C14.7627617,10.1395193 14.759987,10.1671283 14.7572123,10.1933569 C14.7544376,10.2251072 14.7488881,10.2568576 14.7461134,10.2886079 C14.7433387,10.313456 14.7419514,10.3396846 14.7391767,10.3645327 C14.7364019,10.3990439 14.7336272,10.4335552 14.7308525,10.4680664 C14.7294652,10.4901536 14.7294652,10.6585686 14.7280778,10.6820362 C14.7253031,10.7206888 14.7239157,10.757961 14.7225284,10.797994 C14.7225284,10.8187008 14.721141,10.8394075 14.721141,10.8587338 C14.7197537,10.9029082 14.7183663,10.9470826 14.7183663,10.9926375 C14.7183663,11.006442 14.7183663,11.0202465 14.7183663,11.0326705 C14.7155916,11.2728689 14.721141,11.365359 14.721141,11.6469709 C14.721141,11.6483513 14.721141,11.6483513 14.721141,11.6497318 C14.721141,11.6607754 14.721141,11.671819 14.721141,11.684243 L14.721141,17.8562356 C14.721141,18.0149874 14.6406744,18.093673 14.4825158,18.093673 L12.9120291,18.093673 C12.7455464,18.093673 12.6623051,18.0136069 12.6623051,17.8562356 L12.6623051,11.6414491 C12.6623051,11.5213499 12.6623051,11.4040116 12.6609177,11.2921952 C12.6595303,11.1403457 12.6595303,10.9871157 12.6623051,10.8311248 L12.6623051,6.14449659 C12.6623051,5.98574483 12.7455464,5.90705917 12.9120291,5.90705917 L14.4825158,5.90705917 C14.6420618,5.90705917 14.721141,5.98712528 14.721141,6.14449659 L14.721141,7.2212477 C14.721141,7.2212477 15.6159855,5.70827435 17.7747111,5.70827435 C19.1093474,5.70827435 20.5938181,6.25079125 21.4498166,7.18121465 C22.4084794,8.22345451 22.7941643,9.38993487 22.8066505,10.6268182 Z M5.43418143,3.88193881 C4.50782697,3.88193881 3.7568683,3.13471808 3.7568683,2.21297459 C3.7568683,1.2912311 4.50782697,0.544010371 5.43418143,0.544010371 C6.3605359,0.544010371 7.11149457,1.2912311 7.11149457,2.21297459 C7.11149457,3.13471808 6.3605359,3.88193881 5.43418143,3.88193881 Z M62.680643,8.50920768 L61.4001136,9.20357411 C61.2488919,9.28502066 61.0574368,9.23670491 60.968646,9.09037719 C60.843784,8.88330967 60.6828507,8.70385115 60.5246921,8.53129489 C60.0821256,8.05089824 59.2164156,7.75824281 58.4547573,7.75824281 C57.5585255,7.75824281 56.7191752,8.01224563 56.0615686,8.79910221 C56.0143985,8.85432022 55.9727778,8.90953823 55.9325445,8.96337578 C55.9172836,8.98546298 55.9047974,9.00616974 55.8895365,9.02687649 C55.8659514,9.06000729 55.8423664,9.09313809 55.821556,9.1262689 C55.8062951,9.151117 55.7924216,9.1759651 55.778548,9.20081321 C55.7618997,9.22980266 55.7438641,9.25879211 55.7286032,9.28778156 C55.7147296,9.31401012 55.7022434,9.34161912 55.6897572,9.36784767 C55.677271,9.39545668 55.6633975,9.42168523 55.6509113,9.44929423 C55.6384251,9.47690323 55.6287136,9.50451224 55.6176147,9.53212124 C55.6065159,9.55834979 55.595417,9.5859588 55.5857056,9.61218735 C55.5759941,9.63979635 55.5676699,9.66740535 55.5593458,9.69501436 C55.5510217,9.72262336 55.5413102,9.74885191 55.5343734,9.77646091 C55.5260493,9.80406992 55.5204998,9.83167892 55.5135631,9.85928792 C55.5066263,9.88689693 55.4983021,9.91450593 55.4927527,9.94349538 C55.4872033,9.97110438 55.4830412,9.99733294 55.4774918,10.0249419 C55.4733297,10.0539314 55.466393,10.0829208 55.4622309,10.1132907 C55.4580688,10.1395193 55.4552941,10.1671283 55.4525194,10.1933569 C55.4497447,10.2251072 55.4441953,10.2568576 55.4414206,10.2886079 C55.4386458,10.313456 55.4372585,10.3396846 55.4344838,10.3645327 C55.4317091,10.3990439 55.4289344,10.4335552 55.4261596,10.4680664 C55.4247723,10.4901536 55.4247723,10.6585686 55.4233849,10.6820362 C55.4206102,10.7206888 55.4192229,10.757961 55.4178355,10.797994 C55.4178355,10.8187008 55.4164482,10.8394075 55.4164482,10.8587338 C55.4150608,10.9029082 55.4136734,10.9470826 55.4136734,10.9926375 C55.4136734,11.006442 55.4136734,11.0202465 55.4136734,11.0326705 C55.4108987,11.2728689 55.4164482,11.365359 55.4164482,11.6469709 C55.4164482,11.6483513 55.4164482,11.6483513 55.4164482,11.6497318 C55.4164482,11.6607754 55.4164482,11.671819 55.4164482,11.684243 L55.4164482,17.8562356 C55.4164482,17.9873784 55.3096218,18.093673 55.177823,18.093673 L53.6073362,18.093673 C53.4408535,18.093673 53.3576122,18.0136069 53.3576122,17.8562356 L53.3576122,11.6414491 C53.3576122,11.5213499 53.3576122,11.4040116 53.3562248,11.2921952 C53.3548375,11.1403457 53.3548375,10.9871157 53.3576122,10.8311248 L53.3576122,6.14449659 C53.3576122,5.98574483 53.4408535,5.90705917 53.6073362,5.90705917 L55.177823,5.90705917 C55.3096218,5.90705917 55.4164482,6.01335383 55.4164482,6.14449659 L55.4164482,7.2212477 C55.4164482,7.2212477 56.3112926,5.70827435 58.4700182,5.70827435 C59.8046545,5.70827435 61.2891252,6.25079125 62.1451237,7.18121465 C62.4073339,7.46696783 62.6265361,7.76238416 62.8068924,8.06470274 C62.8998452,8.22069361 62.8401889,8.42223933 62.680643,8.50920768 Z M50.1500456,12.4559146 L48.4019773,12.4545342 L40.7909435,12.4545342 C40.9629756,14.591471 42.6000554,16.2673375 44.5964604,16.2673375 C45.8436933,16.2673375 46.9508032,15.6116237 47.6486431,14.5983733 C47.7041374,14.5183071 47.7943155,14.4686109 47.8914304,14.4686109 L49.5534826,14.4686109 C49.7643607,14.4686109 49.9086457,14.6867221 49.8184676,14.8772242 C48.8500932,16.9299535 46.8689492,18.3366322 44.5839742,18.3366322 C41.3431111,18.3366322 38.7168466,15.5094704 38.7168466,12.0224533 C38.7168466,9.01169154 40.6744056,6.49375048 43.2937333,5.86150431 C43.4768643,5.81732991 43.6516711,5.95813582 43.6516711,6.14449659 L43.6516711,7.81760216 C43.6516711,7.94046223 43.5739792,8.04951779 43.4574413,8.08955084 C42.3003866,8.48435958 41.3791824,9.46585963 40.983786,10.715167 L48.2049728,10.715167 C47.8095764,9.46171828 46.8842101,8.47883778 45.7229933,8.08678994 C45.6064554,8.04813734 45.5287635,7.93770133 45.5287635,7.81484126 L45.5287635,6.14863794 C45.5287635,5.96227717 45.7035703,5.82147126 45.8853139,5.86564566 C48.342321,6.46476103 50.213864,8.72041656 50.4302915,11.4854582 C50.4386156,11.601416 50.4427777,11.9216804 50.4413903,12.168781 C50.440003,12.3275328 50.3095915,12.4559146 50.1500456,12.4559146 Z M76.3460975,10.8463098 C76.3488722,11.0023006 76.3488722,11.1555306 76.3447101,11.3073801 C76.3447101,11.4191966 76.3433228,11.5351544 76.3433228,11.656634 L76.3433228,17.8714205 C76.3433228,18.0301723 76.2600814,18.108858 76.0935987,18.108858 L74.523112,18.108858 C74.3913132,18.108858 74.2844868,18.0025633 74.2844868,17.8714205 L74.2844868,16.7187447 C73.2231596,17.7168101 71.8274797,18.3242082 70.2972263,18.3242082 C66.9772839,18.3242082 64.2844263,15.4694373 64.2844263,11.9492894 C64.2844263,8.84051572 66.384883,6.2521717 69.1623692,5.68894805 C69.2733577,5.66686084 69.3774094,5.7538292 69.3774094,5.86702611 L69.3774094,7.74996011 C69.3774094,7.83002622 69.3233025,7.89904872 69.2469979,7.92251638 C67.5877204,8.43880473 66.3765588,10.0718772 66.3765588,12.0058879 C66.3765588,14.355414 68.1648604,16.2604352 70.3707561,16.2604352 C72.5766518,16.2604352 74.3649534,14.355414 74.3649534,12.0058879 C74.3649534,10.0318442 73.1024596,8.37392357 71.39185,7.89352692 C71.3113833,7.87143972 71.2558891,7.80103676 71.2558891,7.7195902 L71.2558891,5.87668927 C71.2558891,5.76073145 71.3641029,5.67514355 71.4792534,5.69999165 C72.5433553,5.92362457 73.5061802,6.44543472 74.2872615,7.1798342 L74.2872615,6.15968154 C74.2872615,6.02853878 74.3940879,5.92224412 74.5258867,5.92224412 L76.0963734,5.92224412 C76.2628561,5.92224412 76.3460975,6.00231023 76.3460975,6.15968154 L76.3460975,10.8463098 Z" id="path-1"></path>
    </defs>
    <g id="Page-1" stroke="none" stroke-width="1" fill="none" fill-rule="evenodd">
        <g id="1440" transform="translate(-61.000000, -12.000000)">
            <g id="logo-/-wordmark-/-interact" transform="translate(61.000000, 12.000000)">
                <mask id="mask-2" fill="white">
                    <use xlink:href="#path-1"></use>
                </mask>
                <use id="Combined-Shape" fill="#FFF" fill-rule="nonzero" xlink:href="#path-1"></use>
            </g>
        </g>
    </g>
</svg>
